<svg width="20" height="20" viewBox="0 0 20 20" fill="none" xmlns="http://www.w3.org/2000/svg">
<g id="angle-double-small-right 1" clip-path="url(#clip0_215_464)">
<path id="Vector" d="M19.693 8.71932C19.6918 8.99689 19.6084 9.26789 19.4532 9.49804C19.298 9.7282 19.0781 9.90717 18.8212 10.0123C18.5643 10.1175 18.282 10.1441 18.01 10.0888C17.738 10.0336 17.4884 9.89886 17.293 9.70177L10.8649 3.24563C10.7344 3.11409 10.5792 3.00967 10.4082 2.93842C10.2371 2.86716 10.0537 2.83048 9.8684 2.83048C9.68312 2.83048 9.49967 2.86716 9.32864 2.93842C9.15761 3.00967 9.00238 3.11409 8.87191 3.24563L2.44384 9.70177C2.31336 9.83332 2.15813 9.93774 1.9871 10.009C1.81607 10.0802 1.63263 10.1169 1.44735 10.1169C1.26207 10.1169 1.07862 10.0802 0.907589 10.009C0.736558 9.93774 0.581329 9.83332 0.450854 9.70177C0.18945 9.43881 0.0427246 9.08309 0.0427246 8.7123C0.0427246 8.34151 0.18945 7.98579 0.450854 7.72283L6.89296 1.28072C7.68244 0.492229 8.75261 0.0493383 9.8684 0.0493383C10.9842 0.0493383 12.0544 0.492229 12.8438 1.28072L19.2859 7.72283C19.416 7.85397 19.5189 8.0095 19.5888 8.1805C19.6586 8.3515 19.694 8.53461 19.693 8.71932Z" fill="white"/>
<path id="Vector_2" d="M19.693 18.5438C19.6918 18.8214 19.6084 19.0924 19.4532 19.3225C19.298 19.5527 19.0781 19.7316 18.8212 19.8368C18.5643 19.9419 18.282 19.9686 18.01 19.9133C17.738 19.858 17.4884 19.7233 17.293 19.5262L9.8684 12.1017L2.44384 19.5262C2.31336 19.6578 2.15813 19.7622 1.9871 19.8335C1.81607 19.9047 1.63263 19.9414 1.44735 19.9414C1.26207 19.9414 1.07862 19.9047 0.907589 19.8335C0.736558 19.7622 0.581329 19.6578 0.450854 19.5262C0.18945 19.2633 0.0427246 18.9076 0.0427246 18.5368C0.0427246 18.166 0.18945 17.8103 0.450854 17.5473L8.87191 9.12624C9.00238 8.99469 9.15761 8.89028 9.32864 8.81902C9.49967 8.74777 9.68312 8.71108 9.8684 8.71108C10.0537 8.71108 10.2371 8.74777 10.4082 8.81902C10.5792 8.89028 10.7344 8.99469 10.8649 9.12624L19.2859 17.5473C19.416 17.6784 19.5189 17.834 19.5888 18.005C19.6586 18.176 19.694 18.3591 19.693 18.5438Z" fill="white"/>
</g>
<defs>
<clipPath id="clip0_215_464">
<rect width="20" height="19.7368" fill="white" transform="matrix(0 -1 1 0 0 20)"/>
</clipPath>
</defs>
</svg>
