<svg width="75" height="21" viewBox="0 0 75 21" fill="none" xmlns="http://www.w3.org/2000/svg">
<path d="M70.596 10.6616L70.8803 11.0729V11.0729L70.596 10.6616ZM74.6848 8.26526C74.7345 7.99361 74.5544 7.73318 74.2828 7.68357L69.856 6.87521C69.5844 6.8256 69.3239 7.0056 69.2743 7.27726C69.2247 7.54891 69.4047 7.80933 69.6764 7.85894L73.6113 8.57749L72.8927 12.5124C72.8431 12.7841 73.0231 13.0445 73.2948 13.0941C73.5664 13.1437 73.8269 12.9637 73.8765 12.6921L74.6848 8.26526ZM70.8803 11.0729L74.4773 8.58675L73.9087 7.76413L70.3117 10.2503L70.8803 11.0729ZM0.444434 0.843296C17.6153 22.183 48.3484 26.6465 70.8803 11.0729L70.3117 10.2503C48.2109 25.5258 18.0659 21.1478 1.22353 0.216396L0.444434 0.843296Z" fill="white"/>
</svg>
