<svg width="20" height="20" viewBox="0 0 20 20" fill="none" xmlns="http://www.w3.org/2000/svg">
<path d="M20 8.33333V15.8333C20 18.1333 18.1333 20 15.8333 20H4.16667C1.86667 20 0 18.1333 0 15.8333V6.66667C0 4.36667 1.86667 2.5 4.16667 2.5H10.8333C11.2917 2.5 11.6667 2.875 11.6667 3.33333C11.6667 3.79167 11.2917 4.16667 10.8333 4.16667H4.16667C3.20833 4.16667 2.38333 4.70833 1.95833 5.49167L8.23333 11.7667C9.20833 12.7417 10.7917 12.7417 11.7667 11.7667L14.95 8.58333C15.275 8.25833 15.8 8.25833 16.125 8.58333C16.45 8.90833 16.45 9.43333 16.125 9.75833L12.9417 12.9417C12.1333 13.75 11.0583 14.1583 9.99167 14.1583C8.925 14.1583 7.85833 13.75 7.04167 12.9417L1.66667 7.55833V15.8333C1.66667 17.2083 2.79167 18.3333 4.16667 18.3333H15.8333C17.2083 18.3333 18.3333 17.2083 18.3333 15.8333V8.33333C18.3333 7.875 18.7083 7.5 19.1667 7.5C19.625 7.5 20 7.875 20 8.33333ZM13.3333 3.33333C13.3333 1.49167 14.825 0 16.6667 0C18.5083 0 20 1.49167 20 3.33333C20 5.175 18.5083 6.66667 16.6667 6.66667C14.825 6.66667 13.3333 5.175 13.3333 3.33333ZM15 3.33333C15 4.25 15.75 5 16.6667 5C17.5833 5 18.3333 4.25 18.3333 3.33333C18.3333 2.41667 17.5833 1.66667 16.6667 1.66667C15.75 1.66667 15 2.41667 15 3.33333Z" fill="white"/>
</svg>
