<svg width="15" height="15" viewBox="0 0 15 15" fill="none" xmlns="http://www.w3.org/2000/svg">
<g clip-path="url(#clip0_3_746)">
<path d="M8.12499 0.625022C8.12499 0.459261 8.19084 0.30029 8.30805 0.18308C8.42526 0.0658696 8.58423 2.15423e-05 8.74999 2.15423e-05C10.407 0.00184129 11.9957 0.660906 13.1674 1.83261C14.3391 3.00432 14.9982 4.59298 15 6.25002C15 6.41578 14.9341 6.57475 14.8169 6.69196C14.6997 6.80917 14.5408 6.87502 14.375 6.87502C14.2092 6.87502 14.0503 6.80917 13.933 6.69196C13.8158 6.57475 13.75 6.41578 13.75 6.25002C13.7485 4.9244 13.2212 3.65349 12.2839 2.71613C11.3465 1.77877 10.0756 1.25151 8.74999 1.25002C8.58423 1.25002 8.42526 1.18417 8.30805 1.06696C8.19084 0.949753 8.12499 0.790782 8.12499 0.625022ZM8.74999 3.75002C9.41303 3.75002 10.0489 4.01341 10.5178 4.48225C10.9866 4.9511 11.25 5.58698 11.25 6.25002C11.25 6.41578 11.3158 6.57475 11.433 6.69196C11.5503 6.80917 11.7092 6.87502 11.875 6.87502C12.0408 6.87502 12.1997 6.80917 12.3169 6.69196C12.4341 6.57475 12.5 6.41578 12.5 6.25002C12.499 5.25576 12.1036 4.30251 11.4005 3.59947C10.6975 2.89642 9.74425 2.50101 8.74999 2.50002C8.58423 2.50002 8.42526 2.56587 8.30805 2.68308C8.19084 2.80029 8.12499 2.95926 8.12499 3.12502C8.12499 3.29078 8.19084 3.44975 8.30805 3.56696C8.42526 3.68417 8.58423 3.75002 8.74999 3.75002ZM14.4331 10.4619C14.7953 10.8251 14.9987 11.3171 14.9987 11.83C14.9987 12.3429 14.7953 12.8349 14.4331 13.1981L13.8644 13.8538C8.74562 18.7544 -3.71063 6.30127 1.11437 1.16627L1.83312 0.541272C2.19672 0.189195 2.68432 -0.00557278 3.19043 -0.000894182C3.69654 0.00378442 4.18046 0.207533 4.53749 0.566272C4.55687 0.585647 5.71499 2.09002 5.71499 2.09002C6.05863 2.45104 6.24993 2.9306 6.24912 3.42902C6.2483 3.92744 6.05544 4.40638 5.71062 4.76627L4.98687 5.67627C5.3874 6.64947 5.97628 7.53393 6.71968 8.27883C7.46309 9.02374 8.34636 9.6144 9.31874 10.0169L10.2344 9.28877C10.5943 8.94422 11.0732 8.75158 11.5714 8.75088C12.0697 8.75018 12.5491 8.94148 12.91 9.28502C12.91 9.28502 14.4137 10.4425 14.4331 10.4619ZM13.5731 11.3706C13.5731 11.3706 12.0775 10.22 12.0581 10.2006C11.9294 10.073 11.7554 10.0013 11.5741 10.0013C11.3927 10.0013 11.2187 10.073 11.09 10.2006C11.0731 10.2181 9.81249 11.2225 9.81249 11.2225C9.72754 11.2901 9.62644 11.3345 9.51915 11.3511C9.41185 11.3678 9.30207 11.3562 9.20062 11.3175C7.9409 10.8485 6.7967 10.1142 5.84551 9.16445C4.89432 8.21466 4.15837 7.07154 3.68749 5.81252C3.64574 5.70968 3.63213 5.59758 3.64806 5.48773C3.66398 5.37789 3.70887 5.27427 3.77812 5.18752C3.77812 5.18752 4.78249 3.92627 4.79937 3.91002C4.92703 3.78126 4.99867 3.60728 4.99867 3.42596C4.99867 3.24464 4.92703 3.07066 4.79937 2.9419C4.77999 2.92315 3.62937 1.42627 3.62937 1.42627C3.49868 1.30909 3.32812 1.24633 3.15265 1.25086C2.97717 1.2554 2.81008 1.32687 2.68562 1.45065L1.96687 2.07565C-1.55938 6.31565 9.23499 16.5113 12.9506 13L13.52 12.3438C13.6534 12.2202 13.7336 12.0496 13.7435 11.868C13.7534 11.6864 13.6923 11.508 13.5731 11.3706Z" fill="white"/>
</g>
<defs>
<clipPath id="clip0_3_746">
<rect width="15" height="15" fill="white"/>
</clipPath>
</defs>
</svg>
