<svg width="31" height="31" viewBox="0 0 31 31" fill="none" xmlns="http://www.w3.org/2000/svg">
<g clip-path="url(#clip0_3_770)">
<path d="M16.9994 0.918176C18.0636 0.914093 19.1278 0.924788 20.1916 0.95026L20.4746 0.960468C20.8012 0.972135 21.1235 0.986718 21.5129 1.00422C23.0646 1.07713 24.1233 1.32213 25.0523 1.68234C26.0148 2.05276 26.8256 2.55443 27.6364 3.36526C28.3778 4.09385 28.9516 4.97518 29.3179 5.94797C29.6781 6.87693 29.9231 7.93713 29.996 9.4888C30.0135 9.87672 30.0281 10.2005 30.0398 10.5271L30.0485 10.8101C30.0744 11.8735 30.0856 12.9372 30.0821 14.0009L30.0835 15.0888V16.9992C30.0871 18.0634 30.0759 19.1276 30.05 20.1915L30.0412 20.4744C30.0296 20.8011 30.015 21.1234 29.9975 21.5128C29.9246 23.0644 29.6767 24.1232 29.3179 25.0521C28.9528 26.026 28.3789 26.908 27.6364 27.6363C26.9072 28.3776 26.0254 28.9514 25.0523 29.3178C24.1233 29.678 23.0646 29.923 21.5129 29.9959C21.1235 30.0134 20.8012 30.028 20.4746 30.0396L20.1916 30.0484C19.1278 30.0743 18.0636 30.0855 16.9994 30.0819L15.9114 30.0834H14.0025C12.9383 30.087 11.8741 30.0758 10.8102 30.0498L10.5273 30.0411C10.1811 30.0285 9.83496 30.014 9.48894 29.9973C7.93727 29.9244 6.87852 29.6765 5.94811 29.3178C4.97494 28.9522 4.09345 28.3783 3.3654 27.6363C2.62317 26.9076 2.04885 26.0257 1.68248 25.0521C1.32227 24.1232 1.07727 23.0644 1.00436 21.5128C0.988115 21.1667 0.973532 20.8206 0.960607 20.4744L0.953316 20.1915C0.926429 19.1276 0.914275 18.0634 0.916857 16.9992V14.0009C0.912787 12.9372 0.923483 11.8735 0.948941 10.8101L0.959149 10.5271C0.970815 10.2005 0.985399 9.87672 1.0029 9.4888C1.07582 7.93568 1.32082 6.87838 1.68102 5.94797C2.04761 4.97471 2.62305 4.09362 3.36686 3.36672C4.09441 2.62406 4.97534 2.04922 5.94811 1.68234C6.87852 1.32213 7.93582 1.07713 9.48894 1.00422L10.5273 0.960468L10.8102 0.953176C11.8736 0.926303 12.9373 0.914149 14.001 0.916718L16.9994 0.918176ZM15.5002 8.20984C14.5341 8.19618 13.5748 8.37467 12.6783 8.73494C11.7817 9.09521 10.9657 9.63008 10.2777 10.3085C9.58963 10.9868 9.04327 11.7952 8.67036 12.6866C8.29744 13.578 8.10541 14.5345 8.10541 15.5008C8.10541 16.467 8.29744 17.4236 8.67036 18.315C9.04327 19.2064 9.58963 20.0147 10.2777 20.6931C10.9657 21.3715 11.7817 21.9063 12.6783 22.2666C13.5748 22.6269 14.5341 22.8054 15.5002 22.7917C17.4341 22.7917 19.2887 22.0235 20.6562 20.656C22.0236 19.2886 22.7919 17.4339 22.7919 15.5001C22.7919 13.5662 22.0236 11.7115 20.6562 10.3441C19.2887 8.97661 17.4341 8.20984 15.5002 8.20984ZM15.5002 11.1265C16.0813 11.1158 16.6588 11.221 17.1989 11.436C17.7389 11.651 18.2307 11.9714 18.6455 12.3786C19.0603 12.7857 19.3898 13.2715 19.6148 13.8074C19.8398 14.3434 19.9557 14.9188 19.9558 15.5C19.9559 16.0813 19.8402 16.6567 19.6154 17.1928C19.3906 17.7288 19.0612 18.2147 18.6465 18.622C18.2319 19.0293 17.7402 19.3499 17.2002 19.565C16.6602 19.7802 16.0828 19.8856 15.5016 19.8751C14.3413 19.8751 13.2285 19.4141 12.4081 18.5936C11.5876 17.7732 11.1266 16.6604 11.1266 15.5001C11.1266 14.3397 11.5876 13.2269 12.4081 12.4065C13.2285 11.586 14.3413 11.1251 15.5016 11.1251L15.5002 11.1265ZM23.1564 6.02234C22.686 6.04117 22.241 6.24131 21.9148 6.58084C21.5886 6.92037 21.4064 7.37296 21.4064 7.8438C21.4064 8.31465 21.5886 8.76723 21.9148 9.10676C22.241 9.44629 22.686 9.64643 23.1564 9.66526C23.6399 9.66526 24.1036 9.4732 24.4454 9.13134C24.7873 8.78948 24.9794 8.32581 24.9794 7.84234C24.9794 7.35888 24.7873 6.89521 24.4454 6.55335C24.1036 6.21148 23.6399 6.01943 23.1564 6.01943V6.02234Z" fill="white"/>
</g>
<defs>
<clipPath id="clip0_3_770">
<rect width="31" height="31" fill="white"/>
</clipPath>
</defs>
</svg>
