<svg width="33" height="33" viewBox="0 0 33 33" fill="none" xmlns="http://www.w3.org/2000/svg">
<g id="facebook 1" clip-path="url(#clip0_127_586)">
<g id="Group">
<path id="Vector" d="M32.2398 16.2179C32.2398 24.2631 26.3372 30.9327 18.6319 32.1431V20.9088H22.3785L23.0918 16.2609H18.6319V13.2452C18.6319 11.973 19.2552 10.7345 21.2514 10.7345H23.2785V6.77704C23.2785 6.77704 21.4381 6.4627 19.6797 6.4627C16.0071 6.4627 13.6079 8.68859 13.6079 12.7172V16.2596H9.52552V20.9075H13.6079V32.1417C5.90392 30.93 0 24.2618 0 16.2179C0 7.31571 7.21769 0.0980225 16.1199 0.0980225C25.0221 0.0980225 32.2398 7.31437 32.2398 16.2179Z" fill="white"/>
</g>
</g>
<defs>
<clipPath id="clip0_127_586">
<rect width="32.2398" height="32.2398" fill="white"/>
</clipPath>
</defs>
</svg>
