<svg width="29" height="28" viewBox="0 0 29 28" fill="none" xmlns="http://www.w3.org/2000/svg">
<path id="Path_2520" d="M24.1867 23.687H20.1473V17.4728C20.1473 15.9908 20.1204 14.0839 18.0463 14.0839C15.9427 14.0839 15.6203 15.6978 15.6203 17.3659V23.687H11.5823V10.9075H15.4604V12.6534H15.5142C16.3054 11.3258 17.775 10.5327 19.34 10.5895C23.4344 10.5895 24.188 13.2354 24.188 16.6757L24.1867 23.687ZM7.02439 9.1603C5.72942 9.1603 4.68029 8.12965 4.68029 6.85751C4.68029 5.58537 5.72942 4.55473 7.02439 4.55473C8.31935 4.55473 9.36848 5.58537 9.36848 6.85751C9.36848 8.12965 8.31935 9.1603 7.02439 9.1603ZM9.0434 23.687H5V10.9075H9.0434V23.687ZM26.2003 0.870274H2.97024C1.87275 0.858397 0.972723 1.72277 0.95929 2.80092V25.7153C0.972723 26.7947 1.87275 27.6591 2.97024 27.6472H26.2003C27.3005 27.6604 28.2045 26.7961 28.2193 25.7153V2.7996C28.2032 1.71881 27.2991 0.854438 26.2003 0.868955" fill="white"/>
</svg>
