<svg width="30" height="28" viewBox="0 0 30 28" fill="none" xmlns="http://www.w3.org/2000/svg">
<g id="envelope 1">
<path id="Vector" d="M29.9425 5.79236L19.42 16.491C18.2467 17.6809 16.6572 18.3491 15 18.3491C13.3428 18.3491 11.7533 17.6809 10.58 16.491L0.0575 5.79236C0.04 5.99316 0 6.17491 0 6.37444V19.3855C0.00198482 21.0702 0.661102 22.6854 1.83277 23.8767C3.00445 25.0679 4.59301 25.7381 6.25 25.7401H23.75C25.407 25.7381 26.9956 25.0679 28.1672 23.8767C29.3389 22.6854 29.998 21.0702 30 19.3855V6.37444C30 6.17491 29.96 5.99316 29.9425 5.79236Z" fill="#6FBE3E"/>
<path id="Vector_2" d="M17.6525 14.694L29.07 3.08409C28.5169 2.15164 27.7368 1.37983 26.805 0.843112C25.8731 0.306393 24.821 0.0228723 23.75 0.0198975H6.24999C5.17902 0.0228723 4.12687 0.306393 3.19503 0.843112C2.26318 1.37983 1.48309 2.15164 0.929993 3.08409L12.3475 14.694C13.052 15.4073 14.0057 15.8079 15 15.8079C15.9943 15.8079 16.948 15.4073 17.6525 14.694Z" fill="#6FBE3E"/>
</g>
</svg>
