<svg width="33" height="33" viewBox="0 0 33 33" fill="none" xmlns="http://www.w3.org/2000/svg">
<g id="reddit 1" clip-path="url(#clip0_127_591)">
<g id="Group">
<path id="Vector" d="M13.1855 19.4782C12.26 19.4782 11.5064 18.7246 11.5064 17.799C11.5064 16.8735 12.26 16.1199 13.1855 16.1199C14.1111 16.1199 14.8647 16.8735 14.8647 17.799C14.8647 18.7246 14.1111 19.4782 13.1855 19.4782Z" fill="white"/>
<path id="Vector_2" d="M20.8703 21.6208C21.0409 21.7914 21.0395 22.0668 20.8703 22.236C19.7244 23.3806 17.5281 23.4692 16.8819 23.4692C16.2358 23.4692 14.0395 23.3806 12.895 22.236C12.7243 22.0654 12.7243 21.7914 12.895 21.6208C13.0656 21.4502 13.3396 21.4502 13.5102 21.6208C14.2329 22.3435 15.7777 22.5987 16.8819 22.5987C17.9862 22.5987 19.531 22.3422 20.255 21.6195C20.4256 21.4502 20.701 21.4502 20.8703 21.6208Z" fill="white"/>
<path id="Vector_3" d="M22.2534 17.799C22.2534 18.7259 21.4998 19.4782 20.5742 19.4782C19.6473 19.4782 18.8951 18.7246 18.8951 17.799C18.8951 16.8735 19.6487 16.1199 20.5742 16.1199C21.4998 16.1199 22.2534 16.8735 22.2534 17.799Z" fill="white"/>
<path id="Vector_4" d="M16.8801 0C7.97787 0 0.760178 7.21769 0.760178 16.1199C0.760178 25.0221 7.97787 32.2398 16.8801 32.2398C25.7823 32.2398 33 25.0221 33 16.1199C33 7.21769 25.7823 0 16.8801 0ZM26.2256 18.2679C26.2619 18.5003 26.2807 18.7354 26.2807 18.9745C26.2807 22.5907 22.0707 25.5232 16.8774 25.5232C11.6841 25.5232 7.47412 22.5907 7.47412 18.9745C7.47412 18.734 7.49427 18.4976 7.53054 18.2639C6.71245 17.8958 6.14154 17.075 6.14154 16.1199C6.14154 14.8209 7.19336 13.7691 8.49236 13.7691C9.12372 13.7691 9.69598 14.0189 10.1178 14.4246C11.7459 13.2519 13.9946 12.5023 16.4972 12.4325L17.6928 6.81066C17.7156 6.70185 17.7815 6.60648 17.8741 6.54603C17.9668 6.48558 18.081 6.46408 18.1898 6.48692L22.0962 7.3171C22.3716 6.76499 22.9371 6.3808 23.5967 6.3808C24.5236 6.3808 25.2759 7.13306 25.2759 8.05995C25.2759 8.98685 24.5236 9.73911 23.5967 9.73911C22.6967 9.73911 21.9673 9.02849 21.9256 8.13921L18.4276 7.39501L17.357 12.4325C19.8233 12.5185 22.0371 13.268 23.6437 14.4273C24.0669 14.0203 24.6405 13.7677 25.2745 13.7677C26.5735 13.7677 27.6253 14.8196 27.6253 16.1186C27.624 17.079 27.0491 17.9025 26.2256 18.2679Z" fill="white"/>
</g>
</g>
<defs>
<clipPath id="clip0_127_591">
<rect width="32.2398" height="32.2398" fill="white" transform="translate(0.760178)"/>
</clipPath>
</defs>
</svg>
