<svg width="30" height="31" viewBox="0 0 30 31" fill="none" xmlns="http://www.w3.org/2000/svg">
<g id="earth-americas 1" clip-path="url(#clip0_127_523)">
<path id="Vector" d="M15 0C6.72875 0 0 6.83728 0 15.2419C0 23.6466 6.72875 30.4839 15 30.4839C23.2712 30.4839 30 23.6466 30 15.2419C30 6.83728 23.2712 0 15 0ZM19.4175 17.1611L16.6163 23.3291C16.3938 23.8193 15.9113 24.1331 15.38 24.1331H15.1137C14.3612 24.1331 13.7513 23.5132 13.7513 22.7486V19.7447C13.7513 19.3014 13.5775 18.8759 13.2687 18.5621L11.7812 17.0506C11.4412 16.7052 11.25 16.2365 11.25 15.7487V14.5256C11.25 14.1712 11.1112 13.8308 10.8638 13.5793L10.3975 13.1055C10.1425 12.8464 9.7975 12.7016 9.4375 12.7016H7.00125C6.52125 12.7016 6.0625 12.5022 5.73125 12.1478L3.65875 9.93393C5.6425 5.57728 9.97375 2.54032 15 2.54032C15.2575 2.54032 15.5087 2.56446 15.7613 2.5797C15.095 3.60599 14.4913 4.54972 14.125 5.12637C13.8938 5.48837 13.8888 5.94944 14.1075 6.32032L15.1538 8.09347C15.4313 8.56216 15.3575 9.16294 14.9775 9.55034L14.9738 9.55415C14.6163 9.91742 14.0713 10.0076 13.6188 9.7777L12.5188 9.21883C12.135 9.02323 11.6712 9.10071 11.3675 9.40808L10.7062 10.08C10.3162 10.4763 10.3162 11.1177 10.7062 11.5127L11.4462 12.2647C11.7212 12.5441 12.095 12.7016 12.4838 12.7016H14.2725C14.7488 12.7016 15.215 12.8375 15.6187 13.0941L18.8213 15.1276C19.495 15.5557 19.7513 16.427 19.4175 17.1611ZM24.405 15.5722C23.99 15.3626 23.6862 14.979 23.5737 14.5218L22.79 11.3375C22.6187 10.6414 22.9225 9.91361 23.5337 9.55542L25.5125 8.39577C26.765 10.3734 27.5 12.7207 27.5 15.2419C27.5 15.8618 27.4412 16.4651 27.3563 17.0608L24.405 15.5722Z" fill="#6FBE3E"/>
</g>
<defs>
<clipPath id="clip0_127_523">
<rect width="30" height="30.4839" fill="white"/>
</clipPath>
</defs>
</svg>
