<svg width="32" height="31" viewBox="0 0 32 31" fill="none" xmlns="http://www.w3.org/2000/svg">
<g id="skype 1" clip-path="url(#clip0_127_549)">
<g id="Page-1_1_">
<g id="Logo_1_">
<path id="Shape_1_" d="M15.9865 24.8756C10.8749 24.8756 8.54032 22.2718 8.54032 20.3615C8.53904 19.9064 8.72622 19.4705 9.05699 19.1564C9.38776 18.8436 9.83263 18.6795 10.2878 18.7051C12.4762 18.7051 11.9031 21.9872 15.9865 21.9872C18.0737 21.9872 19.2993 20.7307 19.2993 19.55C19.2993 18.841 18.8942 18.0307 17.516 17.7064L12.957 16.5564C9.29417 15.6243 8.65571 13.5884 8.65571 11.6987C8.65571 7.77818 12.2416 6.35895 15.657 6.35895C18.8031 6.35895 22.5416 8.09613 22.5416 10.4474C22.5416 11.4602 21.6955 12.0025 20.7134 12.0025C18.8442 12.0025 19.1583 9.37818 15.3993 9.37818C13.5301 9.37818 12.5467 10.2551 12.5467 11.4807C12.5467 12.7064 14.0006 13.1218 15.2775 13.4013L18.6416 14.1615C22.3301 14.9923 23.3121 17.1551 23.3121 19.2269C23.3121 22.4128 20.8455 24.8756 15.9826 24.8756M30.0993 18.1333C30.2455 17.2974 30.3185 16.45 30.3172 15.6C30.3352 11.3346 28.4608 7.28202 25.2006 4.5333C21.9403 1.78459 17.6288 0.621767 13.4275 1.36023C12.1365 0.616639 10.6724 0.226895 9.18263 0.230741C6.12494 0.249972 3.30571 1.88843 1.7775 4.53715C0.248015 7.18587 0.239041 10.4461 1.75186 13.1038C0.908271 17.7423 2.38648 22.5 5.71084 25.8423C9.03519 29.1846 13.7852 30.6897 18.4275 29.8705C19.7172 30.6128 21.1801 31.0025 22.6672 31C25.7237 30.9807 28.5403 29.3423 30.0685 26.6948C31.5967 24.0474 31.6096 20.7897 30.0993 18.1333Z" fill="#6FBE3E"/>
</g>
</g>
</g>
<defs>
<clipPath id="clip0_127_549">
<rect width="30.7692" height="30.7692" fill="white" transform="translate(0.538452 0.230713)"/>
</clipPath>
</defs>
</svg>
