<svg width="33" height="33" viewBox="0 0 33 33" fill="none" xmlns="http://www.w3.org/2000/svg">
<g id="telegram 1" clip-path="url(#clip0_127_583)">
<g id="Artboard">
<path id="Vector" fill-rule="evenodd" clip-rule="evenodd" d="M16.4005 0C7.49824 0 0.280548 7.21769 0.280548 16.1199C0.280548 25.0221 7.49824 32.2398 16.4005 32.2398C25.3027 32.2398 32.5204 25.0221 32.5204 16.1199C32.5204 7.21769 25.3027 0 16.4005 0ZM23.872 10.9629C23.6302 13.5112 22.5798 19.6972 22.0465 22.5518C21.8208 23.7607 21.3748 24.1651 20.9449 24.204C20.0086 24.29 19.298 23.5848 18.3913 22.991C16.9727 22.0614 16.1707 21.4825 14.7938 20.5744C13.202 19.5252 14.2337 18.949 15.1404 18.0073C15.3782 17.7601 19.5022 14.0082 19.5828 13.6683C19.5922 13.6254 19.6029 13.4668 19.5076 13.3836C19.4122 13.3003 19.2738 13.3285 19.1744 13.3513C19.032 13.3836 16.7658 14.8814 12.3745 17.8447C11.7311 18.2867 11.1481 18.5016 10.6255 18.4909C10.0506 18.4788 8.94366 18.1658 8.1202 17.8971C7.11136 17.5694 6.30805 17.3947 6.3779 16.8386C6.41417 16.5484 6.81314 16.2516 7.57615 15.948C12.2751 13.9007 15.4091 12.5507 16.9767 11.8978C21.454 10.036 22.3836 9.71224 22.9908 9.7015C23.7511 9.69075 23.9338 10.3181 23.872 10.9629Z" fill="white"/>
</g>
</g>
<defs>
<clipPath id="clip0_127_583">
<rect width="32.2398" height="32.2398" fill="white" transform="translate(0.280548)"/>
</clipPath>
</defs>
</svg>
