<svg width="33" height="29" viewBox="0 0 33 29" fill="none" xmlns="http://www.w3.org/2000/svg">
<g id="twitter 1" clip-path="url(#clip0_127_589)">
<path id="Logo_00000038394049246713568260000012923108920998390947_" d="M29.4189 10.1988C29.4377 10.469 29.4377 10.7404 29.4377 11.0131C29.4377 19.3441 22.7829 28.9503 10.6177 28.9503V28.9452C7.02433 28.9503 3.50481 27.9696 0.479645 26.1195C1.0022 26.1797 1.52744 26.2091 2.05402 26.2104C5.03352 26.213 7.92704 25.2604 10.2685 23.5064C7.43807 23.4552 4.95561 21.696 4.08916 19.1277C5.08054 19.3095 6.10146 19.2724 7.07537 19.0202C3.98841 18.4261 1.76924 15.8412 1.76924 12.8401C1.76924 12.8132 1.76924 12.7863 1.76924 12.7607C2.68942 13.2498 3.7184 13.52 4.77157 13.5494C1.86461 11.6994 0.967272 8.01462 2.723 5.13392C6.08131 9.07216 11.0368 11.4663 16.3551 11.7211C15.8218 9.53179 16.5512 7.23747 18.268 5.69726C20.9318 3.30948 25.1216 3.43239 27.6269 5.97124C29.1086 5.69342 30.5285 5.17489 31.8275 4.44127C31.3332 5.90083 30.3001 7.14017 28.9192 7.92884C30.2316 7.77904 31.5118 7.44488 32.7195 6.93532C31.8315 8.20155 30.7139 9.30646 29.4189 10.1988Z" fill="white"/>
</g>
<defs>
<clipPath id="clip0_127_589">
<rect width="32.2398" height="28.371" fill="white" transform="translate(0.479645 0.579224)"/>
</clipPath>
</defs>
</svg>
