<svg width="31" height="31" viewBox="0 0 31 31" fill="none" xmlns="http://www.w3.org/2000/svg">
<g id="dashicons:whatsapp" clip-path="url(#clip0_127_553)">
<path id="Vector" d="M28.4791 7.11539C23.8995 8.93153e-06 14.5495 -2.11538 7.29846 2.3077C0.238236 6.73078 -2.05157 16.3462 2.52804 23.4615L2.90967 24.0385L1.38314 29.8077L7.10765 28.2692L7.6801 28.6539C10.1607 30 12.8322 30.7692 15.5036 30.7692C18.3658 30.7692 21.2281 30 23.7087 28.4615C30.7689 23.8462 32.8679 14.4231 28.4791 7.11539ZM24.472 21.9231C23.7087 23.0769 22.7546 23.8462 21.4189 24.0385C20.6557 24.0385 19.7016 24.4231 15.8852 22.8846C12.6413 21.3462 9.9699 18.8462 8.06173 15.9615C6.91683 14.6154 6.34438 12.8846 6.15356 11.1539C6.15356 9.61539 6.72601 8.26924 7.6801 7.3077C8.06173 6.92309 8.44337 6.73078 8.825 6.73078H9.77908C10.1607 6.73078 10.5424 6.73078 10.7332 7.50001C11.1148 8.46155 12.0689 10.7692 12.0689 10.9615C12.2597 11.1539 12.2597 11.5385 12.0689 11.7308C12.2597 12.1154 12.0689 12.5 11.8781 12.6923C11.6873 12.8846 11.4964 13.2692 11.3056 13.4615C10.924 13.6539 10.7332 14.0385 10.924 14.4231C11.6873 15.5769 12.6413 16.7308 13.5954 17.6923C14.7403 18.6539 15.8852 19.4231 17.2209 20C17.6026 20.1923 17.9842 20.1923 18.175 19.8077C18.3658 19.4231 19.3199 18.4615 19.7016 18.0769C20.0832 17.6923 20.274 17.6923 20.6556 17.8846L23.7087 19.4231C24.0904 19.6154 24.472 19.8077 24.6628 20C24.8536 20.5769 24.8536 21.3462 24.472 21.9231Z" fill="#6FBE3E"/>
</g>
<defs>
<clipPath id="clip0_127_553">
<rect width="30.7692" height="30.7692" fill="white"/>
</clipPath>
</defs>
</svg>
