<svg width="405" height="48" viewBox="0 0 405 48" fill="none" xmlns="http://www.w3.org/2000/svg">
<path d="M10.112 35.224C8.46933 35.224 6.99733 34.9573 5.696 34.424C4.39467 33.8907 3.34933 33.1013 2.56 32.056C1.792 31.0107 1.38667 29.752 1.344 28.28H7.168C7.25333 29.112 7.54133 29.752 8.032 30.2C8.52267 30.6267 9.16267 30.84 9.952 30.84C10.7627 30.84 11.4027 30.6587 11.872 30.296C12.3413 29.912 12.576 29.3893 12.576 28.728C12.576 28.1733 12.384 27.7147 12 27.352C11.6373 26.9893 11.1787 26.6907 10.624 26.456C10.0907 26.2213 9.32267 25.9547 8.32 25.656C6.86933 25.208 5.68533 24.76 4.768 24.312C3.85067 23.864 3.06133 23.2027 2.4 22.328C1.73867 21.4533 1.408 20.312 1.408 18.904C1.408 16.8133 2.16533 15.1813 3.68 14.008C5.19467 12.8133 7.168 12.216 9.6 12.216C12.0747 12.216 14.0693 12.8133 15.584 14.008C17.0987 15.1813 17.9093 16.824 18.016 18.936H12.096C12.0533 18.2107 11.7867 17.6453 11.296 17.24C10.8053 16.8133 10.176 16.6 9.408 16.6C8.74667 16.6 8.21333 16.7813 7.808 17.144C7.40267 17.4853 7.2 17.9867 7.2 18.648C7.2 19.3733 7.54133 19.9387 8.224 20.344C8.90667 20.7493 9.97333 21.1867 11.424 21.656C12.8747 22.1467 14.048 22.616 14.944 23.064C15.8613 23.512 16.6507 24.1627 17.312 25.016C17.9733 25.8693 18.304 26.968 18.304 28.312C18.304 29.592 17.9733 30.7547 17.312 31.8C16.672 32.8453 15.7333 33.6773 14.496 34.296C13.2587 34.9147 11.7973 35.224 10.112 35.224ZM20.5835 26.072C20.5835 24.216 20.9568 22.5947 21.7035 21.208C22.4715 19.8213 23.5275 18.7547 24.8715 18.008C26.2368 17.2613 27.7942 16.888 29.5435 16.888C31.7835 16.888 33.6502 17.4747 35.1435 18.648C36.6582 19.8213 37.6502 21.4747 38.1195 23.608H32.2955C31.8048 22.2427 30.8555 21.56 29.4475 21.56C28.4448 21.56 27.6448 21.9547 27.0475 22.744C26.4502 23.512 26.1515 24.6213 26.1515 26.072C26.1515 27.5227 26.4502 28.6427 27.0475 29.432C27.6448 30.2 28.4448 30.584 29.4475 30.584C30.8555 30.584 31.8048 29.9013 32.2955 28.536H38.1195C37.6502 30.6267 36.6582 32.2693 35.1435 33.464C33.6288 34.6587 31.7622 35.256 29.5435 35.256C27.7942 35.256 26.2368 34.8827 24.8715 34.136C23.5275 33.3893 22.4715 32.3227 21.7035 30.936C20.9568 29.5493 20.5835 27.928 20.5835 26.072ZM46.5185 20.12C47.1585 19.1387 47.9585 18.3707 48.9185 17.816C49.8785 17.24 50.9452 16.952 52.1185 16.952V22.744H50.6145C49.2492 22.744 48.2252 23.0427 47.5425 23.64C46.8598 24.216 46.5185 25.24 46.5185 26.712V35H41.0465V17.144H46.5185V20.12ZM62.862 35.256C61.1127 35.256 59.534 34.8827 58.126 34.136C56.7393 33.3893 55.6407 32.3227 54.83 30.936C54.0407 29.5493 53.646 27.928 53.646 26.072C53.646 24.2373 54.0513 22.6267 54.862 21.24C55.6727 19.832 56.782 18.7547 58.19 18.008C59.598 17.2613 61.1767 16.888 62.926 16.888C64.6753 16.888 66.254 17.2613 67.662 18.008C69.07 18.7547 70.1793 19.832 70.99 21.24C71.8007 22.6267 72.206 24.2373 72.206 26.072C72.206 27.9067 71.79 29.528 70.958 30.936C70.1473 32.3227 69.0273 33.3893 67.598 34.136C66.19 34.8827 64.6113 35.256 62.862 35.256ZM62.862 30.52C63.9073 30.52 64.7927 30.136 65.518 29.368C66.2647 28.6 66.638 27.5013 66.638 26.072C66.638 24.6427 66.2753 23.544 65.55 22.776C64.846 22.008 63.9713 21.624 62.926 21.624C61.8593 21.624 60.974 22.008 60.27 22.776C59.566 23.5227 59.214 24.6213 59.214 26.072C59.214 27.5013 59.5553 28.6 60.238 29.368C60.942 30.136 61.8167 30.52 62.862 30.52ZM83.237 35.256C81.4877 35.256 79.909 34.8827 78.501 34.136C77.1143 33.3893 76.0157 32.3227 75.205 30.936C74.4157 29.5493 74.021 27.928 74.021 26.072C74.021 24.2373 74.4263 22.6267 75.237 21.24C76.0477 19.832 77.157 18.7547 78.565 18.008C79.973 17.2613 81.5517 16.888 83.301 16.888C85.0503 16.888 86.629 17.2613 88.037 18.008C89.445 18.7547 90.5543 19.832 91.365 21.24C92.1757 22.6267 92.581 24.2373 92.581 26.072C92.581 27.9067 92.165 29.528 91.333 30.936C90.5223 32.3227 89.4023 33.3893 87.973 34.136C86.565 34.8827 84.9863 35.256 83.237 35.256ZM83.237 30.52C84.2823 30.52 85.1677 30.136 85.893 29.368C86.6397 28.6 87.013 27.5013 87.013 26.072C87.013 24.6427 86.6503 23.544 85.925 22.776C85.221 22.008 84.3463 21.624 83.301 21.624C82.2343 21.624 81.349 22.008 80.645 22.776C79.941 23.5227 79.589 24.6213 79.589 26.072C79.589 27.5013 79.9303 28.6 80.613 29.368C81.317 30.136 82.1917 30.52 83.237 30.52ZM102.268 16.888C103.527 16.888 104.625 17.144 105.564 17.656C106.524 18.168 107.26 18.84 107.772 19.672V17.144H113.244V34.968C113.244 36.6107 112.913 38.0933 112.252 39.416C111.612 40.76 110.62 41.8267 109.276 42.616C107.953 43.4053 106.3 43.8 104.316 43.8C101.671 43.8 99.5267 43.1707 97.884 41.912C96.2413 40.6747 95.3027 38.9893 95.068 36.856H100.476C100.647 37.5387 101.052 38.072 101.692 38.456C102.332 38.8613 103.121 39.064 104.06 39.064C105.191 39.064 106.087 38.7333 106.748 38.072C107.431 37.432 107.772 36.3973 107.772 34.968V32.44C107.239 33.272 106.503 33.9547 105.564 34.488C104.625 35 103.527 35.256 102.268 35.256C100.796 35.256 99.4627 34.8827 98.268 34.136C97.0733 33.368 96.124 32.2907 95.42 30.904C94.7373 29.496 94.396 27.8747 94.396 26.04C94.396 24.2053 94.7373 22.5947 95.42 21.208C96.124 19.8213 97.0733 18.7547 98.268 18.008C99.4627 17.2613 100.796 16.888 102.268 16.888ZM107.772 26.072C107.772 24.7067 107.388 23.6293 106.62 22.84C105.873 22.0507 104.956 21.656 103.868 21.656C102.78 21.656 101.852 22.0507 101.084 22.84C100.337 23.608 99.964 24.6747 99.964 26.04C99.964 27.4053 100.337 28.4933 101.084 29.304C101.852 30.0933 102.78 30.488 103.868 30.488C104.956 30.488 105.873 30.0933 106.62 29.304C107.388 28.5147 107.772 27.4373 107.772 26.072ZM134.035 25.784C134.035 26.296 134.003 26.8293 133.939 27.384H121.555C121.64 28.4933 121.992 29.3467 122.611 29.944C123.251 30.52 124.029 30.808 124.947 30.808C126.312 30.808 127.261 30.232 127.795 29.08H133.619C133.32 30.2533 132.776 31.3093 131.987 32.248C131.219 33.1867 130.248 33.9227 129.075 34.456C127.901 34.9893 126.589 35.256 125.139 35.256C123.389 35.256 121.832 34.8827 120.467 34.136C119.101 33.3893 118.035 32.3227 117.267 30.936C116.499 29.5493 116.115 27.928 116.115 26.072C116.115 24.216 116.488 22.5947 117.235 21.208C118.003 19.8213 119.069 18.7547 120.435 18.008C121.8 17.2613 123.368 16.888 125.139 16.888C126.867 16.888 128.403 17.2507 129.747 17.976C131.091 18.7013 132.136 19.736 132.883 21.08C133.651 22.424 134.035 23.992 134.035 25.784ZM128.435 24.344C128.435 23.4053 128.115 22.6587 127.475 22.104C126.835 21.5493 126.035 21.272 125.075 21.272C124.157 21.272 123.379 21.5387 122.739 22.072C122.12 22.6053 121.736 23.3627 121.587 24.344H128.435Z" fill="white"/>
<path d="M151.608 12.536V16.92H142.456V21.656H149.304V25.912H142.456V35H136.984V12.536H151.608ZM159.956 20.12C160.596 19.1387 161.396 18.3707 162.356 17.816C163.316 17.24 164.383 16.952 165.556 16.952V22.744H164.052C162.687 22.744 161.663 23.0427 160.98 23.64C160.297 24.216 159.956 25.24 159.956 26.712V35H154.484V17.144H159.956V20.12ZM176.3 35.256C174.55 35.256 172.972 34.8827 171.564 34.136C170.177 33.3893 169.078 32.3227 168.268 30.936C167.478 29.5493 167.084 27.928 167.084 26.072C167.084 24.2373 167.489 22.6267 168.299 21.24C169.11 19.832 170.22 18.7547 171.628 18.008C173.036 17.2613 174.614 16.888 176.364 16.888C178.113 16.888 179.692 17.2613 181.1 18.008C182.508 18.7547 183.617 19.832 184.428 21.24C185.238 22.6267 185.644 24.2373 185.644 26.072C185.644 27.9067 185.228 29.528 184.396 30.936C183.585 32.3227 182.465 33.3893 181.036 34.136C179.628 34.8827 178.049 35.256 176.3 35.256ZM176.3 30.52C177.345 30.52 178.23 30.136 178.956 29.368C179.702 28.6 180.076 27.5013 180.076 26.072C180.076 24.6427 179.713 23.544 178.988 22.776C178.284 22.008 177.409 21.624 176.364 21.624C175.297 21.624 174.412 22.008 173.708 22.776C173.004 23.5227 172.652 24.6213 172.652 26.072C172.652 27.5013 172.993 28.6 173.676 29.368C174.38 30.136 175.254 30.52 176.3 30.52ZM195.331 16.888C196.589 16.888 197.688 17.144 198.627 17.656C199.587 18.168 200.323 18.84 200.835 19.672V17.144H206.307V34.968C206.307 36.6107 205.976 38.0933 205.315 39.416C204.675 40.76 203.683 41.8267 202.339 42.616C201.016 43.4053 199.363 43.8 197.379 43.8C194.733 43.8 192.589 43.1707 190.947 41.912C189.304 40.6747 188.365 38.9893 188.131 36.856H193.539C193.709 37.5387 194.115 38.072 194.755 38.456C195.395 38.8613 196.184 39.064 197.123 39.064C198.253 39.064 199.149 38.7333 199.811 38.072C200.493 37.432 200.835 36.3973 200.835 34.968V32.44C200.301 33.272 199.565 33.9547 198.627 34.488C197.688 35 196.589 35.256 195.331 35.256C193.859 35.256 192.525 34.8827 191.331 34.136C190.136 33.368 189.187 32.2907 188.483 30.904C187.8 29.496 187.459 27.8747 187.459 26.04C187.459 24.2053 187.8 22.5947 188.483 21.208C189.187 19.8213 190.136 18.7547 191.331 18.008C192.525 17.2613 193.859 16.888 195.331 16.888ZM200.835 26.072C200.835 24.7067 200.451 23.6293 199.683 22.84C198.936 22.0507 198.019 21.656 196.931 21.656C195.843 21.656 194.915 22.0507 194.147 22.84C193.4 23.608 193.027 24.6747 193.027 26.04C193.027 27.4053 193.4 28.4933 194.147 29.304C194.915 30.0933 195.843 30.488 196.931 30.488C198.019 30.488 198.936 30.0933 199.683 29.304C200.451 28.5147 200.835 27.4373 200.835 26.072Z" fill="white"/>
<path d="M293.968 31.032H285.584L284.24 35H278.512L286.64 12.536H292.976L301.104 35H295.312L293.968 31.032ZM292.56 26.808L289.776 18.584L287.024 26.808H292.56ZM310.362 16.888C311.62 16.888 312.719 17.144 313.658 17.656C314.618 18.168 315.354 18.84 315.866 19.672V17.144H321.338V34.968C321.338 36.6107 321.007 38.0933 320.346 39.416C319.706 40.76 318.714 41.8267 317.37 42.616C316.047 43.4053 314.394 43.8 312.41 43.8C309.764 43.8 307.62 43.1707 305.978 41.912C304.335 40.6747 303.396 38.9893 303.162 36.856H308.57C308.74 37.5387 309.146 38.072 309.786 38.456C310.426 38.8613 311.215 39.064 312.154 39.064C313.284 39.064 314.18 38.7333 314.842 38.072C315.524 37.432 315.866 36.3973 315.866 34.968V32.44C315.332 33.272 314.596 33.9547 313.658 34.488C312.719 35 311.62 35.256 310.362 35.256C308.89 35.256 307.556 34.8827 306.362 34.136C305.167 33.368 304.218 32.2907 303.514 30.904C302.831 29.496 302.49 27.8747 302.49 26.04C302.49 24.2053 302.831 22.5947 303.514 21.208C304.218 19.8213 305.167 18.7547 306.362 18.008C307.556 17.2613 308.89 16.888 310.362 16.888ZM315.866 26.072C315.866 24.7067 315.482 23.6293 314.714 22.84C313.967 22.0507 313.05 21.656 311.962 21.656C310.874 21.656 309.946 22.0507 309.178 22.84C308.431 23.608 308.058 24.6747 308.058 26.04C308.058 27.4053 308.431 28.4933 309.178 29.304C309.946 30.0933 310.874 30.488 311.962 30.488C313.05 30.488 313.967 30.0933 314.714 29.304C315.482 28.5147 315.866 27.4373 315.866 26.072ZM342.128 25.784C342.128 26.296 342.097 26.8293 342.033 27.384H329.649C329.734 28.4933 330.086 29.3467 330.705 29.944C331.345 30.52 332.123 30.808 333.041 30.808C334.406 30.808 335.355 30.232 335.889 29.08H341.713C341.414 30.2533 340.87 31.3093 340.081 32.248C339.313 33.1867 338.342 33.9227 337.169 34.456C335.995 34.9893 334.683 35.256 333.233 35.256C331.483 35.256 329.926 34.8827 328.561 34.136C327.195 33.3893 326.129 32.3227 325.361 30.936C324.593 29.5493 324.209 27.928 324.209 26.072C324.209 24.216 324.582 22.5947 325.329 21.208C326.097 19.8213 327.163 18.7547 328.529 18.008C329.894 17.2613 331.462 16.888 333.233 16.888C334.961 16.888 336.497 17.2507 337.841 17.976C339.185 18.7013 340.23 19.736 340.977 21.08C341.745 22.424 342.128 23.992 342.128 25.784ZM336.529 24.344C336.529 23.4053 336.209 22.6587 335.569 22.104C334.929 21.5493 334.129 21.272 333.169 21.272C332.251 21.272 331.473 21.5387 330.833 22.072C330.214 22.6053 329.83 23.3627 329.681 24.344H336.529ZM355.895 16.952C357.986 16.952 359.65 17.6347 360.887 19C362.146 20.344 362.775 22.2 362.775 24.568V35H357.335V25.304C357.335 24.1093 357.026 23.1813 356.407 22.52C355.789 21.8587 354.957 21.528 353.911 21.528C352.866 21.528 352.034 21.8587 351.415 22.52C350.797 23.1813 350.487 24.1093 350.487 25.304V35H345.015V17.144H350.487V19.512C351.042 18.7227 351.789 18.104 352.727 17.656C353.666 17.1867 354.722 16.952 355.895 16.952ZM365.49 26.072C365.49 24.216 365.863 22.5947 366.61 21.208C367.378 19.8213 368.434 18.7547 369.778 18.008C371.143 17.2613 372.7 16.888 374.45 16.888C376.69 16.888 378.556 17.4747 380.05 18.648C381.564 19.8213 382.556 21.4747 383.026 23.608H377.202C376.711 22.2427 375.762 21.56 374.354 21.56C373.351 21.56 372.551 21.9547 371.954 22.744C371.356 23.512 371.058 24.6213 371.058 26.072C371.058 27.5227 371.356 28.6427 371.954 29.432C372.551 30.2 373.351 30.584 374.354 30.584C375.762 30.584 376.711 29.9013 377.202 28.536H383.026C382.556 30.6267 381.564 32.2693 380.05 33.464C378.535 34.6587 376.668 35.256 374.45 35.256C372.7 35.256 371.143 34.8827 369.778 34.136C368.434 33.3893 367.378 32.3227 366.61 30.936C365.863 29.5493 365.49 27.928 365.49 26.072ZM404.193 17.144L392.993 43.48H387.105L391.201 34.392L383.937 17.144H390.049L394.177 28.312L398.273 17.144H404.193Z" fill="white"/>
<path d="M218.857 25.7744L242.428 45.2768L225.715 39.1181L218.857 25.7744Z" fill="#3F7F1C"/>
<path d="M220.315 24.3201L231.028 27.9126L237.114 38.5189L220.315 24.3201Z" fill="#81BD52"/>
<path d="M215 11.49C215.241 12.6434 215.841 13.6913 216.714 14.4837C218.086 15.5957 221.321 15.5102 221.321 15.5102L217.829 12.6875L215 11.49Z" fill="#3F7F1C"/>
<path d="M219.886 10.9763L222.8 15.3387L224.429 15.7666L224.664 13.6492L219.886 10.9763Z" fill="#3F7F1C"/>
<path d="M225.972 14.6543L225.8 18.5894L231.8 26.5443L231.543 22.6952L225.972 14.6543Z" fill="#3F7F1C"/>
<path d="M236.086 16.3651L243.457 41.6842V3.79126L236.086 16.3651Z" fill="#3F7F1C"/>
<path d="M240.286 3.87739L236.622 3.19287L235.143 7.98247L235.4 9.26552L240.286 3.87739Z" fill="#3F7F1C"/>
<path d="M235.786 3L233.857 4.09093L234.565 6.84915L235.786 3Z" fill="#3F7F1C"/>
<path d="M224.343 7.81177L223.143 9.94996V11.8315L225.114 10.1213L224.343 7.81177Z" fill="#81BD52"/>
<path d="M232.431 22.5211L232.743 26.7149L236.343 21.1554L235.441 17.5105L232.431 22.5211Z" fill="#3F7F1C"/>
<path d="M268.143 25.7744L244.572 45.2768L261.286 39.1181L268.143 25.7744Z" fill="#81BD52"/>
<path d="M266.686 24.3201L255.972 27.9126L249.886 38.5189L266.686 24.3201Z" fill="#3F7F1C"/>
<path d="M272 11.49C271.759 12.6434 271.159 13.6913 270.286 14.4837C268.914 15.5957 265.679 15.5102 265.679 15.5102L269.171 12.6875L272 11.49Z" fill="#81BD52"/>
<path d="M267.114 10.9763L264.2 15.3387L262.572 15.7666L262.336 13.6492L267.114 10.9763Z" fill="#3F7F1C"/>
<path d="M261.029 14.6543L261.2 18.5894L255.2 26.5443L255.457 22.6952L261.029 14.6543Z" fill="#3F7F1C"/>
<path d="M250.914 16.3651L243.543 41.6842V3.79126L250.914 16.3651Z" fill="#81BD52"/>
<path d="M246.714 3.87739L250.378 3.19287L251.857 7.98247L251.6 9.26552L246.714 3.87739Z" fill="#81BD52"/>
<path d="M251.214 3L253.143 4.09093L252.435 6.84915L251.214 3Z" fill="#81BD52"/>
<path d="M262.657 7.81177L263.858 9.94996V11.8315L261.886 10.1213L262.657 7.81177Z" fill="#3F7F1C"/>
<path d="M254.569 22.5211L254.257 26.7149L250.657 21.1554L251.559 17.5105L254.569 22.5211Z" fill="#81BD52"/>
</svg>
